<mxfile host="Electron" modified="2023-11-24T01:02:06.629Z" agent="Mozilla/5.0 (Windows NT 10.0; Win64; x64) AppleWebKit/537.36 (KHTML, like Gecko) draw.io/22.0.2 Chrome/114.0.5735.289 Electron/25.8.4 Safari/537.36" etag="6qiBCiZQGfKd0pT6CIH0" version="22.0.2" type="device">
  <diagram name="Strona-1" id="h2WLkj2qyGADKgaHyaSV">
    <mxGraphModel dx="1418" dy="828" grid="1" gridSize="10" guides="1" tooltips="1" connect="1" arrows="1" fold="1" page="1" pageScale="1" pageWidth="827" pageHeight="1169" math="0" shadow="0">
      <root>
        <mxCell id="0" />
        <mxCell id="1" parent="0" />
        <mxCell id="EYUodT9akqzmMVGfxFc3-3" value="&lt;b&gt;Lista użytkowników:&lt;/b&gt;" style="text;html=1;strokeColor=none;fillColor=none;align=left;verticalAlign=middle;whiteSpace=wrap;rounded=0;" parent="1" vertex="1">
          <mxGeometry x="30" y="265" width="190" height="30" as="geometry" />
        </mxCell>
        <mxCell id="EYUodT9akqzmMVGfxFc3-4" value="" style="endArrow=none;html=1;rounded=0;" parent="1" edge="1">
          <mxGeometry width="50" height="50" relative="1" as="geometry">
            <mxPoint x="10" y="220" as="sourcePoint" />
            <mxPoint x="860" y="220" as="targetPoint" />
          </mxGeometry>
        </mxCell>
        <mxCell id="EYUodT9akqzmMVGfxFc3-5" value="" style="endArrow=none;html=1;rounded=0;" parent="1" edge="1">
          <mxGeometry width="50" height="50" relative="1" as="geometry">
            <mxPoint x="10" y="780" as="sourcePoint" />
            <mxPoint x="10" y="220" as="targetPoint" />
          </mxGeometry>
        </mxCell>
        <mxCell id="EYUodT9akqzmMVGfxFc3-6" value="" style="endArrow=none;html=1;rounded=0;" parent="1" edge="1">
          <mxGeometry width="50" height="50" relative="1" as="geometry">
            <mxPoint x="10" y="250" as="sourcePoint" />
            <mxPoint x="860" y="250" as="targetPoint" />
          </mxGeometry>
        </mxCell>
        <mxCell id="EYUodT9akqzmMVGfxFc3-13" value="" style="endArrow=none;html=1;rounded=0;" parent="1" edge="1">
          <mxGeometry width="50" height="50" relative="1" as="geometry">
            <mxPoint x="860" y="780" as="sourcePoint" />
            <mxPoint x="859.58" y="220" as="targetPoint" />
          </mxGeometry>
        </mxCell>
        <mxCell id="EYUodT9akqzmMVGfxFc3-34" value="" style="endArrow=none;html=1;rounded=0;fontFamily=Helvetica;fontSize=12;fontColor=default;" parent="1" edge="1">
          <mxGeometry width="50" height="50" relative="1" as="geometry">
            <mxPoint x="10" y="780" as="sourcePoint" />
            <mxPoint x="860" y="780" as="targetPoint" />
          </mxGeometry>
        </mxCell>
        <mxCell id="DOHr0hYEis4pRiLcCh-8-1" value="login" style="rounded=0;whiteSpace=wrap;html=1;dashed=1;" parent="1" vertex="1">
          <mxGeometry x="20" y="223.75" width="100" height="20" as="geometry" />
        </mxCell>
        <mxCell id="DOHr0hYEis4pRiLcCh-8-2" value="rola" style="rounded=0;whiteSpace=wrap;html=1;dashed=1;" parent="1" vertex="1">
          <mxGeometry x="130" y="223.75" width="100" height="20" as="geometry" />
        </mxCell>
        <mxCell id="DOHr0hYEis4pRiLcCh-8-3" value="" style="rounded=0;whiteSpace=wrap;html=1;" parent="1" vertex="1">
          <mxGeometry x="30" y="290" width="790" height="470" as="geometry" />
        </mxCell>
        <mxCell id="DOHr0hYEis4pRiLcCh-8-4" value="" style="rounded=0;whiteSpace=wrap;html=1;" parent="1" vertex="1">
          <mxGeometry x="820" y="290" width="20" height="450" as="geometry" />
        </mxCell>
        <mxCell id="DOHr0hYEis4pRiLcCh-8-5" value="" style="whiteSpace=wrap;html=1;aspect=fixed;" parent="1" vertex="1">
          <mxGeometry x="820" y="290" width="20" height="20" as="geometry" />
        </mxCell>
        <mxCell id="DOHr0hYEis4pRiLcCh-8-6" value="" style="whiteSpace=wrap;html=1;aspect=fixed;" parent="1" vertex="1">
          <mxGeometry x="820" y="740" width="20" height="20" as="geometry" />
        </mxCell>
        <mxCell id="DOHr0hYEis4pRiLcCh-8-7" value="" style="triangle;whiteSpace=wrap;html=1;rotation=-90;" parent="1" vertex="1">
          <mxGeometry x="825" y="295" width="10" height="10" as="geometry" />
        </mxCell>
        <mxCell id="DOHr0hYEis4pRiLcCh-8-8" value="" style="triangle;whiteSpace=wrap;html=1;rotation=90;" parent="1" vertex="1">
          <mxGeometry x="825" y="745" width="10" height="10" as="geometry" />
        </mxCell>
        <mxCell id="DOHr0hYEis4pRiLcCh-8-10" value="=" style="rounded=0;whiteSpace=wrap;html=1;" parent="1" vertex="1">
          <mxGeometry x="820" y="310" width="20" height="430" as="geometry" />
        </mxCell>
        <mxCell id="LAWEO0FFbo_tGgebEz2V-5" value="" style="group" parent="1" vertex="1" connectable="0">
          <mxGeometry x="30" y="290" width="790" height="90" as="geometry" />
        </mxCell>
        <mxCell id="LAWEO0FFbo_tGgebEz2V-27" value="" style="group" parent="LAWEO0FFbo_tGgebEz2V-5" vertex="1" connectable="0">
          <mxGeometry width="790" height="90" as="geometry" />
        </mxCell>
        <mxCell id="LAWEO0FFbo_tGgebEz2V-2" value="" style="rounded=0;whiteSpace=wrap;html=1;" parent="LAWEO0FFbo_tGgebEz2V-27" vertex="1">
          <mxGeometry width="790" height="80" as="geometry" />
        </mxCell>
        <mxCell id="LAWEO0FFbo_tGgebEz2V-3" value="&amp;lt;Login użytkownika 1 z 4&amp;gt;" style="text;html=1;strokeColor=default;fillColor=none;align=left;verticalAlign=middle;whiteSpace=wrap;rounded=0;dashed=1;" parent="LAWEO0FFbo_tGgebEz2V-27" vertex="1">
          <mxGeometry x="50" y="10" width="400" height="30" as="geometry" />
        </mxCell>
        <mxCell id="LAWEO0FFbo_tGgebEz2V-4" value="&amp;lt;rola użytkownika 1 z 4&amp;gt;" style="text;html=1;strokeColor=default;fillColor=none;align=right;verticalAlign=middle;whiteSpace=wrap;rounded=0;dashed=1;" parent="LAWEO0FFbo_tGgebEz2V-27" vertex="1">
          <mxGeometry x="460" y="10" width="320" height="30" as="geometry" />
        </mxCell>
        <mxCell id="LAWEO0FFbo_tGgebEz2V-26" value="Zarządzaj kontem" style="rounded=1;whiteSpace=wrap;html=1;" parent="LAWEO0FFbo_tGgebEz2V-27" vertex="1">
          <mxGeometry x="360" y="50" width="116.57" height="20" as="geometry" />
        </mxCell>
        <mxCell id="Jf_qNZeHzLJREvACbTD8-1" value="[6]" style="whiteSpace=wrap;html=1;aspect=fixed;" parent="LAWEO0FFbo_tGgebEz2V-27" vertex="1">
          <mxGeometry x="10.00142857142857" y="10" width="30" height="30" as="geometry" />
        </mxCell>
        <mxCell id="yJqh17I6nOIo1jTq-X0E-10" value="" style="group" parent="1" vertex="1" connectable="0">
          <mxGeometry x="30" y="370" width="790" height="90" as="geometry" />
        </mxCell>
        <mxCell id="yJqh17I6nOIo1jTq-X0E-11" value="" style="rounded=0;whiteSpace=wrap;html=1;" parent="yJqh17I6nOIo1jTq-X0E-10" vertex="1">
          <mxGeometry width="790" height="80" as="geometry" />
        </mxCell>
        <mxCell id="yJqh17I6nOIo1jTq-X0E-12" value="&amp;lt;Login użytkownika 2 z 4&amp;gt;" style="text;html=1;strokeColor=default;fillColor=none;align=left;verticalAlign=middle;whiteSpace=wrap;rounded=0;dashed=1;" parent="yJqh17I6nOIo1jTq-X0E-10" vertex="1">
          <mxGeometry x="50" y="10" width="400" height="30" as="geometry" />
        </mxCell>
        <mxCell id="yJqh17I6nOIo1jTq-X0E-13" value="&amp;lt;rola użytkownika 2 z 4&amp;gt;" style="text;html=1;strokeColor=default;fillColor=none;align=right;verticalAlign=middle;whiteSpace=wrap;rounded=0;dashed=1;" parent="yJqh17I6nOIo1jTq-X0E-10" vertex="1">
          <mxGeometry x="460" y="10" width="320" height="30" as="geometry" />
        </mxCell>
        <mxCell id="yJqh17I6nOIo1jTq-X0E-14" value="Zarządzaj kontem" style="rounded=1;whiteSpace=wrap;html=1;" parent="yJqh17I6nOIo1jTq-X0E-10" vertex="1">
          <mxGeometry x="360" y="50" width="116.57" height="20" as="geometry" />
        </mxCell>
        <mxCell id="yJqh17I6nOIo1jTq-X0E-15" value="[6]" style="whiteSpace=wrap;html=1;aspect=fixed;" parent="yJqh17I6nOIo1jTq-X0E-10" vertex="1">
          <mxGeometry x="10.00142857142857" y="10" width="30" height="30" as="geometry" />
        </mxCell>
        <mxCell id="yJqh17I6nOIo1jTq-X0E-17" value="" style="group" parent="1" vertex="1" connectable="0">
          <mxGeometry x="30" y="450" width="790" height="90" as="geometry" />
        </mxCell>
        <mxCell id="yJqh17I6nOIo1jTq-X0E-18" value="" style="rounded=0;whiteSpace=wrap;html=1;" parent="yJqh17I6nOIo1jTq-X0E-17" vertex="1">
          <mxGeometry width="790" height="80" as="geometry" />
        </mxCell>
        <mxCell id="yJqh17I6nOIo1jTq-X0E-19" value="&amp;lt;Login użytkownika 3 z 4&amp;gt;" style="text;html=1;strokeColor=default;fillColor=none;align=left;verticalAlign=middle;whiteSpace=wrap;rounded=0;dashed=1;" parent="yJqh17I6nOIo1jTq-X0E-17" vertex="1">
          <mxGeometry x="50" y="10" width="400" height="30" as="geometry" />
        </mxCell>
        <mxCell id="yJqh17I6nOIo1jTq-X0E-20" value="&amp;lt;rola użytkownika 3 z 4&amp;gt;" style="text;html=1;strokeColor=default;fillColor=none;align=right;verticalAlign=middle;whiteSpace=wrap;rounded=0;dashed=1;" parent="yJqh17I6nOIo1jTq-X0E-17" vertex="1">
          <mxGeometry x="460" y="10" width="320" height="30" as="geometry" />
        </mxCell>
        <mxCell id="yJqh17I6nOIo1jTq-X0E-21" value="Zarządzaj kontem" style="rounded=1;whiteSpace=wrap;html=1;" parent="yJqh17I6nOIo1jTq-X0E-17" vertex="1">
          <mxGeometry x="360" y="50" width="116.57" height="20" as="geometry" />
        </mxCell>
        <mxCell id="yJqh17I6nOIo1jTq-X0E-22" value="[6]" style="whiteSpace=wrap;html=1;aspect=fixed;" parent="yJqh17I6nOIo1jTq-X0E-17" vertex="1">
          <mxGeometry x="10.00142857142857" y="10" width="30" height="30" as="geometry" />
        </mxCell>
        <mxCell id="yJqh17I6nOIo1jTq-X0E-24" value="" style="group" parent="1" vertex="1" connectable="0">
          <mxGeometry x="30" y="530" width="790" height="90" as="geometry" />
        </mxCell>
        <mxCell id="yJqh17I6nOIo1jTq-X0E-25" value="" style="rounded=0;whiteSpace=wrap;html=1;" parent="yJqh17I6nOIo1jTq-X0E-24" vertex="1">
          <mxGeometry width="790" height="80" as="geometry" />
        </mxCell>
        <mxCell id="yJqh17I6nOIo1jTq-X0E-26" value="&amp;lt;Login użytkownika 4 z 4&amp;gt;" style="text;html=1;strokeColor=default;fillColor=none;align=left;verticalAlign=middle;whiteSpace=wrap;rounded=0;dashed=1;" parent="yJqh17I6nOIo1jTq-X0E-24" vertex="1">
          <mxGeometry x="50" y="10" width="400" height="30" as="geometry" />
        </mxCell>
        <mxCell id="yJqh17I6nOIo1jTq-X0E-27" value="&amp;lt;rola użytkownika 4 z 4&amp;gt;" style="text;html=1;strokeColor=default;fillColor=none;align=right;verticalAlign=middle;whiteSpace=wrap;rounded=0;dashed=1;" parent="yJqh17I6nOIo1jTq-X0E-24" vertex="1">
          <mxGeometry x="460" y="10" width="320" height="30" as="geometry" />
        </mxCell>
        <mxCell id="yJqh17I6nOIo1jTq-X0E-28" value="Zarządzaj kontem" style="rounded=1;whiteSpace=wrap;html=1;" parent="yJqh17I6nOIo1jTq-X0E-24" vertex="1">
          <mxGeometry x="360" y="50" width="116.57" height="20" as="geometry" />
        </mxCell>
        <mxCell id="yJqh17I6nOIo1jTq-X0E-29" value="[6]" style="whiteSpace=wrap;html=1;aspect=fixed;" parent="yJqh17I6nOIo1jTq-X0E-24" vertex="1">
          <mxGeometry x="10.00142857142857" y="10" width="30" height="30" as="geometry" />
        </mxCell>
        <mxCell id="yJqh17I6nOIo1jTq-X0E-30" value="Filtrowanie" style="rounded=1;whiteSpace=wrap;html=1;" parent="1" vertex="1">
          <mxGeometry x="630" y="265" width="100" height="20" as="geometry" />
        </mxCell>
        <mxCell id="yJqh17I6nOIo1jTq-X0E-31" value="Sortowanie" style="rounded=1;whiteSpace=wrap;html=1;" parent="1" vertex="1">
          <mxGeometry x="740" y="265" width="100" height="20" as="geometry" />
        </mxCell>
        <mxCell id="MShHFfUQuio3h0e7G-e7-1" value="" style="html=1;verticalLabelPosition=bottom;align=center;labelBackgroundColor=#ffffff;verticalAlign=top;strokeWidth=2;shadow=0;dashed=0;shape=mxgraph.ios7.icons.home;" vertex="1" parent="1">
          <mxGeometry x="790" y="228.75" width="20" height="12.5" as="geometry" />
        </mxCell>
        <mxCell id="MShHFfUQuio3h0e7G-e7-2" value="" style="html=1;verticalLabelPosition=bottom;align=center;labelBackgroundColor=#ffffff;verticalAlign=top;strokeWidth=2;shadow=0;dashed=0;shape=mxgraph.ios7.icons.back;fontFamily=Helvetica;fontSize=12;" vertex="1" parent="1">
          <mxGeometry x="840" y="230" width="11.76" height="10" as="geometry" />
        </mxCell>
        <mxCell id="MShHFfUQuio3h0e7G-e7-3" value="" style="html=1;verticalLabelPosition=bottom;align=center;labelBackgroundColor=#ffffff;verticalAlign=top;strokeWidth=2;shadow=0;dashed=0;shape=mxgraph.ios7.icons.reload;fontFamily=Helvetica;fontSize=12;" vertex="1" parent="1">
          <mxGeometry x="820" y="230" width="10" height="10" as="geometry" />
        </mxCell>
        <mxCell id="MShHFfUQuio3h0e7G-e7-4" value="[1]" style="text;html=1;strokeColor=none;fillColor=none;align=center;verticalAlign=middle;whiteSpace=wrap;rounded=0;fontSize=12;fontFamily=Helvetica;fontColor=default;" vertex="1" parent="1">
          <mxGeometry x="870" y="228.75" width="20" height="10" as="geometry" />
        </mxCell>
        <mxCell id="MShHFfUQuio3h0e7G-e7-5" value="" style="endArrow=classic;html=1;rounded=0;fontFamily=Helvetica;fontSize=12;fontColor=default;exitX=0;exitY=0.75;exitDx=0;exitDy=0;" edge="1" parent="1" source="MShHFfUQuio3h0e7G-e7-4" target="MShHFfUQuio3h0e7G-e7-2">
          <mxGeometry width="50" height="50" relative="1" as="geometry">
            <mxPoint x="790" y="200" as="sourcePoint" />
            <mxPoint x="840" y="150" as="targetPoint" />
          </mxGeometry>
        </mxCell>
        <mxCell id="MShHFfUQuio3h0e7G-e7-6" value="" style="shape=flexArrow;endArrow=classic;html=1;rounded=0;fontFamily=Helvetica;fontSize=12;fontColor=default;startWidth=9.30232558139535;endWidth=9.30232558139535;startSize=5.425581395348837;endSize=2.8674418604651164;width=4.651162790697675;" edge="1" parent="1">
          <mxGeometry width="50" height="50" relative="1" as="geometry">
            <mxPoint x="780" y="234.88" as="sourcePoint" />
            <mxPoint x="760" y="234.88" as="targetPoint" />
          </mxGeometry>
        </mxCell>
        <mxCell id="MShHFfUQuio3h0e7G-e7-7" value="[2]" style="text;html=1;strokeColor=none;fillColor=none;align=center;verticalAlign=middle;whiteSpace=wrap;rounded=0;fontSize=12;fontFamily=Helvetica;fontColor=default;" vertex="1" parent="1">
          <mxGeometry x="830" y="200" width="40" height="10" as="geometry" />
        </mxCell>
        <mxCell id="MShHFfUQuio3h0e7G-e7-8" value="" style="endArrow=classic;html=1;rounded=0;fontFamily=Helvetica;fontSize=12;fontColor=default;exitX=0.25;exitY=1;exitDx=0;exitDy=0;entryX=1;entryY=0;entryDx=0;entryDy=0;entryPerimeter=0;" edge="1" parent="1" source="MShHFfUQuio3h0e7G-e7-7" target="MShHFfUQuio3h0e7G-e7-3">
          <mxGeometry width="50" height="50" relative="1" as="geometry">
            <mxPoint x="780" y="230" as="sourcePoint" />
            <mxPoint x="830" y="180" as="targetPoint" />
          </mxGeometry>
        </mxCell>
        <mxCell id="MShHFfUQuio3h0e7G-e7-9" value="[3]" style="text;html=1;strokeColor=none;fillColor=none;align=center;verticalAlign=middle;whiteSpace=wrap;rounded=0;fontSize=12;fontFamily=Helvetica;fontColor=default;" vertex="1" parent="1">
          <mxGeometry x="790" y="200" width="20" height="10" as="geometry" />
        </mxCell>
        <mxCell id="MShHFfUQuio3h0e7G-e7-10" value="" style="endArrow=classic;html=1;rounded=0;fontFamily=Helvetica;fontSize=12;fontColor=default;entryX=0.437;entryY=-0.082;entryDx=0;entryDy=0;entryPerimeter=0;exitX=0.5;exitY=1;exitDx=0;exitDy=0;" edge="1" parent="1" source="MShHFfUQuio3h0e7G-e7-9" target="MShHFfUQuio3h0e7G-e7-1">
          <mxGeometry width="50" height="50" relative="1" as="geometry">
            <mxPoint x="810" y="160" as="sourcePoint" />
            <mxPoint x="800" y="170" as="targetPoint" />
          </mxGeometry>
        </mxCell>
        <mxCell id="MShHFfUQuio3h0e7G-e7-11" value="[4]" style="text;html=1;strokeColor=none;fillColor=none;align=center;verticalAlign=middle;whiteSpace=wrap;rounded=0;fontSize=12;fontFamily=Helvetica;fontColor=default;" vertex="1" parent="1">
          <mxGeometry x="740" y="200" width="20" height="10" as="geometry" />
        </mxCell>
        <mxCell id="MShHFfUQuio3h0e7G-e7-12" value="" style="endArrow=classic;html=1;rounded=0;fontFamily=Helvetica;fontSize=12;fontColor=default;exitX=0.748;exitY=1.065;exitDx=0;exitDy=0;exitPerimeter=0;" edge="1" parent="1" source="MShHFfUQuio3h0e7G-e7-11">
          <mxGeometry width="50" height="50" relative="1" as="geometry">
            <mxPoint x="720" y="230" as="sourcePoint" />
            <mxPoint x="760" y="230" as="targetPoint" />
          </mxGeometry>
        </mxCell>
        <mxCell id="MShHFfUQuio3h0e7G-e7-13" value="" style="sketch=0;pointerEvents=1;shadow=0;dashed=0;html=1;labelPosition=center;verticalLabelPosition=bottom;verticalAlign=top;align=center;shape=mxgraph.mscae.intune.account_portal" vertex="1" parent="1">
          <mxGeometry x="730" y="223.75" width="16.5" height="20" as="geometry" />
        </mxCell>
        <mxCell id="MShHFfUQuio3h0e7G-e7-14" value="[5]" style="text;html=1;strokeColor=none;fillColor=none;align=center;verticalAlign=middle;whiteSpace=wrap;rounded=0;" vertex="1" parent="1">
          <mxGeometry x="710" y="190" width="20" height="30" as="geometry" />
        </mxCell>
        <mxCell id="MShHFfUQuio3h0e7G-e7-15" value="" style="endArrow=classic;html=1;rounded=0;exitX=1;exitY=0.75;exitDx=0;exitDy=0;entryX=0.5;entryY=0;entryDx=0;entryDy=0;entryPerimeter=0;" edge="1" parent="1" source="MShHFfUQuio3h0e7G-e7-14" target="MShHFfUQuio3h0e7G-e7-13">
          <mxGeometry width="50" height="50" relative="1" as="geometry">
            <mxPoint x="680" y="240" as="sourcePoint" />
            <mxPoint x="730" y="190" as="targetPoint" />
          </mxGeometry>
        </mxCell>
        <mxCell id="MShHFfUQuio3h0e7G-e7-16" value="&lt;b&gt;Legenda:&lt;/b&gt;&lt;br&gt;[1] Przycisk wylogowania&lt;span style=&quot;white-space: pre;&quot;&gt;&#x9;&lt;/span&gt;&lt;span style=&quot;white-space: pre;&quot;&gt;&#x9;&lt;span style=&quot;white-space: pre;&quot;&gt;&#x9;&lt;/span&gt;&lt;span style=&quot;white-space: pre;&quot;&gt;&#x9;&lt;span style=&quot;white-space: pre;&quot;&gt;&#x9;&lt;/span&gt;&lt;span style=&quot;white-space: pre;&quot;&gt;&#x9;&lt;span style=&quot;white-space: pre;&quot;&gt;&#x9;&lt;/span&gt;&lt;/span&gt;&lt;/span&gt;&lt;/span&gt;[2] Przycisk odświeżenia interfejsu&lt;br&gt;[3] Przycisk otwarcia ekranu domowego&lt;span style=&quot;white-space: pre;&quot;&gt;&#x9;&lt;/span&gt;&lt;span style=&quot;white-space: pre;&quot;&gt;&#x9;&lt;span style=&quot;white-space: pre;&quot;&gt;&#x9;&lt;/span&gt;&lt;span style=&quot;white-space: pre;&quot;&gt;&#x9;&lt;/span&gt;&lt;span style=&quot;white-space: pre;&quot;&gt;&#x9;&lt;/span&gt;&lt;/span&gt;[4] Przycisk otwarcia uprzednio otwartego ekranu&lt;br&gt;[5] Przycisk otwarcia ekranu szegółów swojego konta&lt;span style=&quot;white-space: pre;&quot;&gt;&#x9;&lt;span style=&quot;white-space: pre;&quot;&gt;&#x9;&lt;/span&gt;[&lt;/span&gt;6] Ikona wskazująca na rolę konta&lt;span style=&quot;white-space: pre;&quot;&gt;&#x9;&lt;/span&gt;" style="text;html=1;align=left;verticalAlign=middle;resizable=0;points=[];autosize=1;strokeColor=none;fillColor=none;dashed=1;" vertex="1" parent="1">
          <mxGeometry x="150" y="780" width="610" height="70" as="geometry" />
        </mxCell>
      </root>
    </mxGraphModel>
  </diagram>
</mxfile>
